<svg width="18" height="21" viewBox="0 0 18 21" fill="none" xmlns="http://www.w3.org/2000/svg">
<path d="M6 15.5V16.5C6 17.2956 6.31607 18.0587 6.87868 18.6213C7.44129 19.1839 8.20435 19.5 9 19.5C9.79565 19.5 10.5587 19.1839 11.1213 18.6213C11.6839 18.0587 12 17.2956 12 16.5V15.5M7 3.5C7 2.96957 7.21071 2.46086 7.58579 2.08579C7.96086 1.71071 8.46957 1.5 9 1.5C9.53043 1.5 10.0391 1.71071 10.4142 2.08579C10.7893 2.46086 11 2.96957 11 3.5C12.1484 4.04303 13.1274 4.88833 13.8321 5.9453C14.5367 7.00227 14.9404 8.23107 15 9.5V12.5C15.0753 13.1217 15.2954 13.7171 15.6428 14.2381C15.9902 14.7592 16.4551 15.1914 17 15.5H1C1.54494 15.1914 2.00981 14.7592 2.35719 14.2381C2.70457 13.7171 2.92474 13.1217 3 12.5V9.5C3.05956 8.23107 3.4633 7.00227 4.16795 5.9453C4.8726 4.88833 5.85159 4.04303 7 3.5Z" stroke="#333333" stroke-width="1.2" stroke-linecap="round" stroke-linejoin="round"/>
</svg>
