<svg width="29" height="28" viewBox="0 0 29 28" fill="none" xmlns="http://www.w3.org/2000/svg">
<path d="M12.2833 2.54333C13.7473 2.25794 15.2527 2.25794 16.7167 2.54333" stroke="#333333" stroke-width="1.5" stroke-linecap="round" stroke-linejoin="round"/>
<path d="M21.0333 4.32834C22.2726 5.1663 23.3383 6.23592 24.1717 7.47834" stroke="#333333" stroke-width="1.5" stroke-linecap="round" stroke-linejoin="round"/>
<path d="M25.9567 11.7833C26.2421 13.2473 26.2421 14.7527 25.9567 16.2167" stroke="#333333" stroke-width="1.5" stroke-linecap="round" stroke-linejoin="round"/>
<path d="M24.1717 20.5333C23.3337 21.7726 22.2641 22.8383 21.0217 23.6717" stroke="#333333" stroke-width="1.5" stroke-linecap="round" stroke-linejoin="round"/>
<path d="M16.7167 25.4567C15.2526 25.7418 13.7474 25.7418 12.2833 25.4567" stroke="#333333" stroke-width="1.5" stroke-linecap="round" stroke-linejoin="round"/>
<path d="M7.96664 23.6717C6.72733 22.8337 5.66167 21.7641 4.82831 20.5217" stroke="#333333" stroke-width="1.5" stroke-linecap="round" stroke-linejoin="round"/>
<path d="M3.04333 16.2167C2.75794 14.7527 2.75794 13.2473 3.04333 11.7833" stroke="#333333" stroke-width="1.5" stroke-linecap="round" stroke-linejoin="round"/>
<path d="M4.82831 7.46667C5.66627 6.22736 6.73589 5.1617 7.97831 4.32834" stroke="#333333" stroke-width="1.5" stroke-linecap="round" stroke-linejoin="round"/>
</svg>
